<svg version="1.0" xmlns="http://www.w3.org/2000/svg" xmlns:xlink="http://www.w3.org/1999/xlink" width="100%" height="100%" viewBox="0 0 340.000000 250.000000" preserveAspectRatio="xMidYMid meet" color-interpolation-filters="sRGB" style="margin: auto;">
    <rect x="0" y="0" width="100%" height="100%" fill="#fff" fill-opacity="1" class="background"></rect>
    <rect  x="0" y="0" width="100%" height="100%" fill="#ffffff" fill-opacity="1" class="watermarklayer"></rect>
    <g fill="#f08300" transform="translate(46.41999816894531,97.84625625651763)">
        <g class="iconsvg-imagesvg" transform="translate(0,0)"><g>
            <rect fill="#f08300" fill-opacity="0" stroke-width="2" x="0" y="0" width="60" height="54.30748900273348" class="image-rect"></rect>
            <svg x="0" y="0" width="60" height="54.30748900273348" style="overflow: visible;"><svg xmlns="http://www.w3.org/2000/svg" viewBox="0.01836983487010002 -0.015026364475488663 134.93614196777344 122.134521484375">
                <g>
                <g fill-rule="evenodd"><path d="M49 102.05a47.13 47.13 0 0 1-.1-54.34c.77.12 1.54.26 2.31.44a29.49 29.49 0 0 1 13.87 7.5c-.55.71-2.21 2.79-2.37 3a29.59 29.59 0 0 0 2.52 35.59A29.45 29.45 0 0 1 49 102.05zM90.1 27.57a47.3 47.3 0 1 1-18.16 91.85 47.39 47.39 0 0 0 16.42-14.93 29.69 29.69 0 0 0 .84-59.33c-.67 0-1.34-.05-2 0a47.25 47.25 0 0 0-16.92-14.33 46.86 46.86 0 0 1 19.82-3.26z" fill="#f08300"></path>
                    <path d="M42.18 45.53a30.46 30.46 0 0 1 16.14 1.71 29.79 29.79 0 0 1 18.57 25.23A29.62 29.62 0 0 0 88 65.83a29.72 29.72 0 0 0 4.08-6.15 47.61 47.61 0 0 0-23.69-27.19c-4.8-2.41-11.13-3.7-18.22-4.35a29.83 29.83 0 0 0-8 17.39zM67.63 96.4A29.66 29.66 0 0 1 20.7 61.66a47.11 47.11 0 0 1-1.48-24.86 47.28 47.28 0 1 0 71.39 57 47.13 47.13 0 0 1-23 2.61z" fill="#333333"></path><path d="M70.08 0a47.42 47.42 0 0 1 42.52 29.16c.17.4.81 2.38 1 2.79a41.82 41.82 0 0 0-24.88-6.78 29.66 29.66 0 0 0-48.15 30.92 47.35 47.35 0 0 0-2.82 26.73A47.27 47.27 0 0 1 70.08 0zm-7.75 76.25a29.2 29.2 0 0 0 5.86.73A29.76 29.76 0 0 0 98.4 50.82a29.88 29.88 0 0 1 14.41 14.08 47.44 47.44 0 0 1-44 29.7 30.39 30.39 0 0 1-2.5-3.67 29.44 29.44 0 0 1-4-14.69z" fill="#c9caca"></path>
                </g>
                </g></svg></svg> <!----></g></g>
        <g transform="translate(67,2.272493362426758)">
            <g data-gra="path-name" fill-rule="" class="tp-name iconsvg-namesvg" transform="translate(0,0)"><g transform="scale(1)"><g>
                <path d="M25.55-10.29L11.16-10.29Q10.96-9.16 10.88-8.14 10.8-7.12 10.8-6.3L10.8-6.3Q10.8-5.84 10.85-5.27 10.9-4.71 11.08-4.22 11.26-3.74 11.6-3.4 11.93-3.07 12.54-3.07L12.54-3.07Q13-3.07 13.59-3.38 14.18-3.69 14.77-4.25 15.36-4.81 15.9-5.63 16.43-6.45 16.74-7.47L16.74-7.47 25.14-7.47 23.81-2Q22.78-1.33 21.45-0.87 20.12-0.41 18.63-0.13 17.15 0.15 15.61 0.28 14.08 0.41 12.7 0.41L12.7 0.41Q10.14 0.41 7.94-0.05 5.73-0.51 4.1-1.64 2.46-2.76 1.51-4.63 0.56-6.5 0.56-9.27L0.56-9.27Q0.56-11.77 1.36-14.18 2.15-16.59 4.02-18.46 5.89-20.32 9.04-21.45 12.18-22.58 16.89-22.58L16.89-22.58Q22.01-22.58 24.6-20.99 27.18-19.4 27.18-16.02L27.18-16.02Q27.18-14.64 26.77-13.03 26.37-11.42 25.55-10.29L25.55-10.29ZM17.97-16.38L17.97-16.38Q17.97-17.97 17.46-18.53 16.95-19.1 16.23-19.1L16.23-19.1Q15.41-19.1 14.72-18.56 14.03-18.02 13.46-17.12 12.9-16.23 12.44-15.08 11.98-13.92 11.67-12.65L11.67-12.65 17.51-12.65Q17.61-13.26 17.71-13.92L17.71-13.92Q17.82-14.49 17.89-15.15 17.97-15.82 17.97-16.38ZM29.49-8.45L30.56-13.11 46.69-13.11 45.67-8.45 29.49-8.45ZM71.62-15.56L64.97-15.56Q65.02-15.82 65.07-16.08 65.12-16.33 65.12-16.64L65.12-16.64Q65.12-17.56 64.79-18.35 64.45-19.15 63.48-19.15L63.48-19.15Q62.61-19.15 61.74-18.4 60.87-17.66 60.87-16.43L60.87-16.43Q60.87-15.61 61.31-15.13 61.74-14.64 62.46-14.33 63.17-14.03 64.07-13.82 64.97-13.62 65.84-13.41L65.84-13.41Q67.06-13.11 68.17-12.67 69.27-12.24 70.14-11.52 71.01-10.8 71.52-9.75 72.03-8.7 72.03-7.17L72.03-7.17Q72.03-5.02 71.03-3.56 70.03-2.1 68.27-1.2 66.5-0.31 64.12 0.05 61.74 0.41 59.03 0.41L59.03 0.41Q54.88 0.41 52.17-0.2 49.45-0.82 48.38-1.38L48.38-1.38 49.45-6.5 56.37-6.5Q56.31-6.25 56.31-6.02 56.31-5.78 56.31-5.53L56.31-5.53Q56.31-4.35 56.85-3.66 57.39-2.97 58.72-2.97L58.72-2.97Q60.2-2.97 60.84-3.81 61.48-4.66 61.48-5.38L61.48-5.38Q61.48-6.09 60.95-6.63 60.41-7.17 59.59-7.55 58.77-7.94 57.77-8.22 56.77-8.5 55.85-8.75L55.85-8.75Q55.19-8.91 54.34-9.27 53.5-9.62 52.73-10.29 51.96-10.96 51.45-12.01 50.94-13.05 50.94-14.64L50.94-14.64Q50.94-16.89 52.04-18.4 53.14-19.91 54.91-20.84 56.67-21.76 58.9-22.17 61.13-22.58 63.38-22.58L63.38-22.58Q66.19-22.58 68.7-22.06 71.21-21.55 72.8-20.73L72.8-20.73 71.62-15.56ZM91.43-34.4L88.11-18.74 88.46-18.74Q89.44-19.71 90.72-20.53L90.72-20.53Q91.79-21.25 93.28-21.81 94.76-22.37 96.6-22.37L96.6-22.37Q99.27-22.37 101.01-21.02 102.75-19.66 102.75-17.3L102.75-17.3Q102.75-16.59 102.59-15.69 102.44-14.8 102.24-13.8 102.03-12.8 101.8-11.8 101.57-10.8 101.42-9.98L101.42-9.98 99.27 0 88.87 0 91.69-13.36Q91.79-14.03 91.95-14.72 92.1-15.41 92.1-15.97L92.1-15.97Q92.1-16.74 91.72-17.23 91.33-17.71 90.56-17.71L90.56-17.71Q89.64-17.71 88.8-17.05 87.95-16.38 87.49-15.87L87.49-15.87 84.11 0 73.67 0 80.94-34.4 91.43-34.4ZM129.73-10.29L115.34-10.29Q115.14-9.16 115.06-8.14 114.98-7.12 114.98-6.3L114.98-6.3Q114.98-5.84 115.03-5.27 115.09-4.71 115.26-4.22 115.44-3.74 115.78-3.4 116.11-3.07 116.72-3.07L116.72-3.07Q117.18-3.07 117.77-3.38 118.36-3.69 118.95-4.25 119.54-4.81 120.08-5.63 120.61-6.45 120.92-7.47L120.92-7.47 129.32-7.47 127.99-2Q126.96-1.33 125.63-0.87 124.3-0.41 122.82-0.13 121.33 0.15 119.8 0.28 118.26 0.41 116.88 0.41L116.88 0.41Q114.32 0.41 112.12-0.05 109.91-0.51 108.28-1.64 106.64-2.76 105.69-4.63 104.74-6.5 104.74-9.27L104.74-9.27Q104.74-11.77 105.54-14.18 106.33-16.59 108.2-18.46 110.07-20.32 113.22-21.45 116.37-22.58 121.08-22.58L121.08-22.58Q126.19-22.58 128.78-20.99 131.37-19.4 131.37-16.02L131.37-16.02Q131.37-14.64 130.96-13.03 130.55-11.42 129.73-10.29L129.73-10.29ZM122.15-16.38L122.15-16.38Q122.15-17.97 121.64-18.53 121.13-19.1 120.41-19.1L120.41-19.1Q119.59-19.1 118.9-18.56 118.21-18.02 117.65-17.12 117.08-16.23 116.62-15.08 116.16-13.92 115.85-12.65L115.85-12.65 121.69-12.65Q121.79-13.26 121.89-13.92L121.89-13.92Q122-14.49 122.07-15.15 122.15-15.82 122.15-16.38ZM157.73-10.29L143.34-10.29Q143.14-9.16 143.06-8.14 142.99-7.12 142.99-6.3L142.99-6.3Q142.99-5.84 143.04-5.27 143.09-4.71 143.27-4.22 143.45-3.74 143.78-3.4 144.11-3.07 144.73-3.07L144.73-3.07Q145.19-3.07 145.78-3.38 146.37-3.69 146.95-4.25 147.54-4.81 148.08-5.63 148.62-6.45 148.92-7.47L148.92-7.47 157.32-7.47 155.99-2Q154.97-1.33 153.63-0.87 152.3-0.41 150.82-0.13 149.33 0.15 147.8 0.28 146.26 0.41 144.88 0.41L144.88 0.41Q142.32 0.41 140.12-0.05 137.92-0.51 136.28-1.64 134.64-2.76 133.69-4.63 132.75-6.5 132.75-9.27L132.75-9.27Q132.75-11.77 133.54-14.18 134.33-16.59 136.2-18.46 138.07-20.32 141.22-21.45 144.37-22.58 149.08-22.58L149.08-22.58Q154.2-22.58 156.78-20.99 159.37-19.4 159.37-16.02L159.37-16.02Q159.37-14.64 158.96-13.03 158.55-11.42 157.73-10.29L157.73-10.29ZM150.15-16.38L150.15-16.38Q150.15-17.97 149.64-18.53 149.13-19.1 148.41-19.1L148.41-19.1Q147.59-19.1 146.9-18.56 146.21-18.02 145.65-17.12 145.09-16.23 144.62-15.08 144.16-13.92 143.86-12.65L143.86-12.65 149.69-12.65Q149.8-13.26 149.9-13.92L149.9-13.92Q150-14.49 150.08-15.15 150.15-15.82 150.15-16.38ZM161.57-18.58L162.29-22.01Q164.18-22.42 165.61-22.94 167.05-23.45 168.25-24.22 169.45-24.98 170.55-26.11 171.66-27.24 172.94-28.87L172.94-28.87 178.21-28.87 176.72-22.01 180.72-22.01 180.05-18.58 176.01-18.58 173.91-8.6Q173.65-7.42 173.5-6.5 173.34-5.58 173.34-5.07L173.34-5.07Q173.34-4.04 174.09-3.79 174.83-3.53 176.88-3.53L176.88-3.53 176.11 0Q175.75 0.1 175.01 0.15 174.27 0.2 173.37 0.28 172.47 0.36 171.53 0.38 170.58 0.41 169.86 0.41L169.86 0.41Q168.58 0.41 167.35 0.23 166.13 0.05 165.15-0.49 164.18-1.02 163.59-2.05 163-3.07 163-4.81L163-4.81Q163-5.43 163.08-6.35 163.16-7.27 163.41-8.4L163.41-8.4 165.56-18.58 161.57-18.58Z" transform="translate(-0.5600000023841858, 34.400001525878906)"></path></g> <!----> <!----> <!----> <!----> <!----> <!----> <!----></g></g> <g data-gra="path-slogan" fill-rule="" class="tp-slogan iconsvg-slogansvg" fill="#f08300" transform="translate(5,40.810001373291016)"><rect x="0" height="1" y="3.9750003814697266" width="47.41500473022461"></rect> <rect height="1" y="3.9750003814697266" width="47.41500473022461" x="122.74499893188477"></rect> <g transform="translate(50.41500473022461,0)"><g transform="scale(1)"><path d="M5.67-7.13L5.63-7.13L3.66 0L2.44 0L0.19-8.58L1.41-8.58L3.05-1.59L3.09-1.59L5.02-8.58L6.28-8.58L8.20-1.59L8.25-1.59L9.84-8.58L11.11-8.58L8.86 0L7.64 0L5.67-7.13ZM13.50-1.03L18.66-1.03L18.66 0L12.33 0L12.33-8.58L18.56-8.58L18.56-7.59L13.50-7.59L13.50-4.92L18.19-4.92L18.19-3.89L13.50-3.89L13.50-1.03ZM23.39-7.64L21.33-7.64L21.33-4.97L23.39-4.97Q25.22-4.92 25.17-6.38L25.17-6.38Q25.17-7.64 23.39-7.64L23.39-7.64ZM23.86 0L20.16 0L20.16-8.58L23.95-8.58Q26.25-8.48 26.34-6.42L26.34-6.42Q26.34-5.16 25.22-4.64L25.22-4.64Q26.81-4.08 26.81-2.53L26.81-2.53Q26.67-0.09 23.86 0L23.86 0ZM23.58-3.98L21.33-3.98L21.33-0.98L23.81-0.98Q25.59-1.03 25.64-2.53L25.64-2.53Q25.64-3.98 23.58-3.98L23.58-3.98ZM32.77-1.03L37.92-1.03L37.92 0L31.59 0L31.59-8.58L37.83-8.58L37.83-7.59L32.77-7.59L32.77-4.92L37.45-4.92L37.45-3.89L32.77-3.89L32.77-1.03ZM46.17-8.58L43.27-4.41L46.31 0L44.86 0L42.52-3.52L40.17 0L38.77 0L41.86-4.41L38.95-8.58L40.41-8.58L42.56-5.30L44.77-8.58L46.17-8.58ZM54.56-6.05L54.56-6.05L53.44-6.05Q53.02-7.78 51.05-7.83L51.05-7.83Q48.33-7.69 48.23-4.36L48.23-4.36Q48.23-0.80 51.09-0.80L51.09-0.80Q53.06-0.84 53.53-3.19L53.53-3.19L54.66-3.19Q54.14 0.05 50.86 0.14L50.86 0.14Q47.11 0 47.02-4.31L47.02-4.31Q47.20-8.63 51.05-8.81L51.05-8.81Q54.09-8.72 54.56-6.05ZM57.33-1.03L62.48-1.03L62.48 0L56.16 0L56.16-8.58L62.39-8.58L62.39-7.59L57.33-7.59L57.33-4.92L62.02-4.92L62.02-3.89L57.33-3.89L57.33-1.03ZM63.98-8.58L65.16-8.58L65.16-1.03L69.52-1.03L69.52 0L63.98 0L63.98-8.58Z" transform="translate(-0.1875, 8.8125)"></path>
        </g></g
        ></g></g></g><defs></defs></svg>